<?xml version="1.0" encoding="UTF-8" standalone="no"?>
<!DOCTYPE svg PUBLIC "-//W3C//DTD SVG 1.1//EN" "http://www.w3.org/Graphics/SVG/1.1/DTD/svg11.dtd">
<svg width="100%" height="100%" viewBox="0 0 574 512" version="1.1" xmlns="http://www.w3.org/2000/svg" xmlns:xlink="http://www.w3.org/1999/xlink" xml:space="preserve" xmlns:serif="http://www.serif.com/" style="fill-rule:evenodd;clip-rule:evenodd;stroke-linejoin:round;stroke-miterlimit:2;">
    <g id="Artboard1" transform="matrix(1,0,0,1,-558.73,95.8527)">
        <rect x="558.73" y="-95.853" width="573.968" height="511.345" style="fill:none;"/>
        <g transform="matrix(1.1785,0,0,1.1785,1192.84,-254.653)">
            <circle cx="-432.022" cy="225.671" r="41.651" style="fill:rgb(117,117,117);"/>
        </g>
        <g transform="matrix(1.1785,0,0,1.1785,1346.68,-254.653)">
            <circle cx="-432.022" cy="225.671" r="41.651" style="fill:rgb(117,117,117);"/>
        </g>
        <g transform="matrix(1.1785,0,0,1.1785,1498.12,-254.653)">
            <circle cx="-432.022" cy="225.671" r="41.651" style="fill:rgb(117,117,117);"/>
        </g>
        <g transform="matrix(1.1785,0,0,1.1785,1192.84,-107.396)">
            <circle cx="-432.022" cy="225.671" r="41.651" style="fill:rgb(117,117,117);"/>
        </g>
        <g transform="matrix(1.1785,0,0,1.1785,1346.68,-107.396)">
            <circle cx="-432.022" cy="225.671" r="41.651" style="fill:rgb(117,117,117);"/>
        </g>
        <g transform="matrix(1.1785,0,0,1.1785,1498.12,-107.396)">
            <circle cx="-432.022" cy="225.671" r="41.651" style="fill:rgb(117,117,117);"/>
        </g>
        <g transform="matrix(1.1785,0,0,1.1785,1192.84,42.2545)">
            <circle cx="-432.022" cy="225.671" r="41.651" style="fill:rgb(117,117,117);"/>
        </g>
        <g transform="matrix(1.1785,0,0,1.1785,1346.68,42.2545)">
            <circle cx="-432.022" cy="225.671" r="41.651" style="fill:rgb(117,117,117);"/>
        </g>
        <g transform="matrix(1.1785,0,0,1.1785,1498.12,42.2545)">
            <circle cx="-432.022" cy="225.671" r="41.651" style="fill:rgb(117,117,117);"/>
        </g>
    </g>
</svg>
